***************************************************************

[IMG]http://www.torrentforce.org/imghost/3/greyshadow_tfbanner.png[/IMG]

***************************************************************

[IMG]http://www.torrentforce.org/imghost/4/greyshadow_riseof.jpg[/IMG]

***************************************************************

FILM TITLE: Rise of the Planet of the Apes (2011)

***************************************************************

Genre: Action | Drama | Sci-Fi   

Rated PG-13 for intense and frightening sequences of action and violence

Release: 11 August 2011 (UK) 

Director: Rupert Wyatt

Writer: Rick Jaffa, Amanda Silver

Stars: James Franco, Andy Serkis and Freida Pinto

Country: USA

Language: English | Sign Languages (some dialogue)

Plot:
During experiments to find a cure for Alzheimer's disease, a 
genetically-enhanced chimpanzee uses its greater intelligence to 
lead other apes to freedom.

IMDB Rating: 7.8/10 from 81,709 users   Metascore: 68/100
 
http://www.imdb.com/title/tt1318514/ 

****************************************************************

[IMG]http://www.torrentforce.org/imghost/4/greyshadow_riseoftheplanetoftheapesx2641080p1odmkdajafw.png[/IMG]
[IMG]http://www.torrentforce.org/imghost/4/greyshadow_riseoftheplanetoftheapesx2641080p2.png[/IMG]
[IMG]http://www.torrentforce.org/imghost/4/greyshadow_riseoftheplanetoftheapesx2641080p3.png[/IMG]
[IMG]http://www.torrentforce.org/imghost/4/greyshadow_riseoftheplanetoftheapesx2641080p4.png[/IMG]
[IMG]http://www.torrentforce.org/imghost/4/greyshadow_riseoftheplanetoftheapesps3.png[/IMG]
[IMG]http://www.torrentforce.org/imghost/4/greyshadow_riseoftheplanetoftheapeswdhdtv.png[/IMG]

****************************************************************

[IMG]http://www.torrentforce.org/imghost/2/greyshadow_mediainfo.png[/IMG]
General
Complete name                    : Rise Of The Planet Of The Apes 2011 1080p BDRip x264 ac3 (mp4) [TFRG].mp4
Format                           : MPEG-4
Format profile                   : Base Media
Codec ID                         : isom
File size                        : 3.40 GiB
Duration                         : 1h 44mn
Overall bit rate                 : 4641 Kbps
Encoded date                     : UTC 2011-11-22 17:52:06
Tagged date                      : UTC 2011-11-22 17:52:06

Video
ID                               : 1
Format                           : AVC
Format/Info                      : Advanced Video Codec
Format profile                   : High@L4.1
Format settings, CABAC           : Yes
Format settings, ReFrames        : 5 frames
Codec ID                         : avc1
Codec ID/Info                    : Advanced Video Coding
Duration                         : 1h 44mn
Bit rate                         : 4000 Kbps
Maximum bit rate                 : 19.9 Mbps
Width                            : 1920 pixels
Height                           : 816 pixels
Display aspect ratio             : 2.35:1
Frame rate mode                  : Constant
Frame rate                       : 23.976 fps
Color space                      : YUV
Chroma subsampling               : 4:2:0
Bit depth                        : 8 bits
Scan type                        : Progressive
Bits/(Pixel*Frame)               : 0.106
Stream size                      : 2.93 GiB (86%)
Writing library                  : x264 core 119 r2106 07efeb4
Encoded date                     : UTC 2011-11-20 23:58:49
Tagged date                      : UTC 2011-11-22 17:53:20
Color primaries                  : BT.709-5, BT.1361, IEC 61966-2-4, SMPTE RP177
Transfer characteristics         : BT.709-5, BT.1361
Matrix coefficients              : BT.709-5, BT.1361, IEC 61966-2-4 709, SMPTE RP177

Audio
ID                               : 2
Format                           : AC-3
Format/Info                      : Audio Coding 3
Mode extension                   : CM (complete main)
Codec ID                         : ac-3
Duration                         : 1h 44mn
Bit rate mode                    : Constant
Bit rate                         : 640 Kbps
Channel(s)                       : 6 channels
Channel positions                : Front: L C R, Side: L R, LFE
Sampling rate                    : 48.0 KHz
Bit depth                        : 16 bits
Compression mode                 : Lossy
Stream size                      : 480 MiB (14%)
Language                         : English
Encoded date                     : UTC 2011-11-22 17:53:04
Tagged date                      : UTC 2011-11-22 17:53:20

****************************************************************

Video Source: Rise.of.the.Planet.of.the.Apes.2011.BluRay.1080p.AVC.DTS-HD.MA5.1-CHDBits (41.5GB)

Thanks: (chdbits.org)

****************************************************************

My Exorcismus encode is available in 720p xvid / 720p x264 / 1080p xvid / 1080p x264

****************************************************************

I provide a small sample, so please download this to check your 
compatibility first if you are unsure.

****************************************************************

7th October 2011

I am re-introducing my warning to all downloaders, please please
please use a proxy or vpn service, it is the only secure way to
keep your own ip address from being seen during downloading or
uploading/seeding, this WILL stop isp letters, as for advice to 
which one then thats simple, vpntunnel.se server based in Sweden 
is the right one to use, I have cancelled my vpn and transfered 
to a Swedish one already !!! enough said. 

****************************************************************

A big thanks to all the sites out there who care and share and
who make it possible for you to download this torrent for free.

Greetz to Westy, Ripwyn, mustang, noir, Blackjesus, MXMG, The Stig 
and all the other outstanding members of our community of file 
sharers and a special mention to our friends at 1337x.

****************************************************************